<mxfile host="Electron" modified="2023-12-20T16:11:07.199Z" agent="Mozilla/5.0 (Windows NT 10.0; Win64; x64) AppleWebKit/537.36 (KHTML, like Gecko) draw.io/22.1.2 Chrome/114.0.5735.289 Electron/25.9.4 Safari/537.36" etag="bWTBBA8-aVLGa8029Pob" version="22.1.2" type="device">
  <diagram name="Page-1" id="YJCVg8ZfUEl16WCwRx-1">
    <mxGraphModel dx="1595" dy="758" grid="1" gridSize="10" guides="1" tooltips="1" connect="1" arrows="1" fold="1" page="1" pageScale="1" pageWidth="850" pageHeight="1100" math="0" shadow="0">
      <root>
        <mxCell id="0" />
        <mxCell id="1" parent="0" />
        <mxCell id="PXUZvY8AAILKkQXrS7Lc-1" value="" style="shape=folder;fontStyle=1;spacingTop=10;tabWidth=90;tabHeight=30;tabPosition=left;html=1;whiteSpace=wrap;" parent="1" vertex="1">
          <mxGeometry x="120" y="40" width="240" height="190" as="geometry" />
        </mxCell>
        <mxCell id="PXUZvY8AAILKkQXrS7Lc-2" value="Banking" style="text;align=center;fontStyle=1;verticalAlign=middle;spacingLeft=3;spacingRight=3;strokeColor=none;rotatable=0;points=[[0,0.5],[1,0.5]];portConstraint=eastwest;html=1;" parent="1" vertex="1">
          <mxGeometry x="120" y="40" width="80" height="26" as="geometry" />
        </mxCell>
        <mxCell id="PXUZvY8AAILKkQXrS7Lc-4" value="" style="shape=folder;fontStyle=1;spacingTop=10;tabWidth=90;tabHeight=30;tabPosition=left;html=1;whiteSpace=wrap;" parent="1" vertex="1">
          <mxGeometry x="510" y="110" width="440" height="380" as="geometry" />
        </mxCell>
        <mxCell id="PXUZvY8AAILKkQXrS7Lc-5" value="GUI" style="text;align=center;fontStyle=1;verticalAlign=middle;spacingLeft=3;spacingRight=3;strokeColor=none;rotatable=0;points=[[0,0.5],[1,0.5]];portConstraint=eastwest;html=1;" parent="1" vertex="1">
          <mxGeometry x="510" y="110" width="80" height="26" as="geometry" />
        </mxCell>
        <mxCell id="PXUZvY8AAILKkQXrS7Lc-6" value="&lt;p style=&quot;margin:0px;margin-top:4px;text-align:center;&quot;&gt;&lt;b&gt;BankAccount&lt;/b&gt;&lt;/p&gt;&lt;hr size=&quot;1&quot;&gt;&lt;div style=&quot;height:2px;&quot;&gt;&lt;/div&gt;" style="verticalAlign=top;align=left;overflow=fill;fontSize=12;fontFamily=Helvetica;html=1;whiteSpace=wrap;" parent="1" vertex="1">
          <mxGeometry x="160" y="100" width="140" height="60" as="geometry" />
        </mxCell>
        <mxCell id="PXUZvY8AAILKkQXrS7Lc-8" value="&lt;p style=&quot;margin:0px;margin-top:4px;text-align:center;&quot;&gt;&lt;b&gt;BankingApp&lt;/b&gt;&lt;/p&gt;&lt;hr size=&quot;1&quot;&gt;&lt;div style=&quot;height:2px;&quot;&gt;&lt;/div&gt;" style="verticalAlign=top;align=left;overflow=fill;fontSize=12;fontFamily=Helvetica;html=1;whiteSpace=wrap;" parent="1" vertex="1">
          <mxGeometry x="550" y="210" width="140" height="60" as="geometry" />
        </mxCell>
        <mxCell id="PXUZvY8AAILKkQXrS7Lc-9" value="&lt;p style=&quot;margin:0px;margin-top:4px;text-align:center;&quot;&gt;&lt;b&gt;AccountManager&lt;/b&gt;&lt;/p&gt;&lt;hr size=&quot;1&quot;&gt;&lt;div style=&quot;height:2px;&quot;&gt;&lt;/div&gt;" style="verticalAlign=top;align=left;overflow=fill;fontSize=12;fontFamily=Helvetica;html=1;whiteSpace=wrap;" parent="1" vertex="1">
          <mxGeometry x="780" y="210" width="140" height="60" as="geometry" />
        </mxCell>
        <mxCell id="PXUZvY8AAILKkQXrS7Lc-10" value="&lt;p style=&quot;margin:0px;margin-top:4px;text-align:center;&quot;&gt;&lt;b&gt;TransactionManager&lt;/b&gt;&lt;/p&gt;&lt;hr size=&quot;1&quot;&gt;&lt;div style=&quot;height:2px;&quot;&gt;&lt;/div&gt;" style="verticalAlign=top;align=left;overflow=fill;fontSize=12;fontFamily=Helvetica;html=1;whiteSpace=wrap;" parent="1" vertex="1">
          <mxGeometry x="660" y="360" width="140" height="60" as="geometry" />
        </mxCell>
        <mxCell id="PXUZvY8AAILKkQXrS7Lc-11" value="&lt;font style=&quot;font-size: 18px;&quot;&gt;Import&lt;/font&gt;" style="endArrow=open;endSize=12;dashed=1;html=1;rounded=0;exitX=0;exitY=0;exitDx=0;exitDy=117.5;exitPerimeter=0;entryX=0;entryY=0;entryDx=240;entryDy=110;entryPerimeter=0;" parent="1" source="PXUZvY8AAILKkQXrS7Lc-4" target="PXUZvY8AAILKkQXrS7Lc-1" edge="1">
          <mxGeometry width="160" relative="1" as="geometry">
            <mxPoint x="510" y="360" as="sourcePoint" />
            <mxPoint x="670" y="360" as="targetPoint" />
          </mxGeometry>
        </mxCell>
        <mxCell id="9lXZ9nQb3GqiydMC1-ox-1" value="javax.swing" style="shape=folder;fontStyle=1;spacingTop=10;tabWidth=60;tabHeight=20;tabPosition=left;html=1;whiteSpace=wrap;" vertex="1" parent="1">
          <mxGeometry x="145" y="280" width="190" height="140" as="geometry" />
        </mxCell>
        <mxCell id="9lXZ9nQb3GqiydMC1-ox-3" value="" style="shape=folder;fontStyle=1;spacingTop=10;tabWidth=80;tabHeight=30;tabPosition=left;html=1;whiteSpace=wrap;" vertex="1" parent="1">
          <mxGeometry x="1060" y="350" width="300" height="250" as="geometry" />
        </mxCell>
        <mxCell id="9lXZ9nQb3GqiydMC1-ox-4" value="java.util" style="text;align=center;fontStyle=1;verticalAlign=middle;spacingLeft=3;spacingRight=3;strokeColor=none;rotatable=0;points=[[0,0.5],[1,0.5]];portConstraint=eastwest;html=1;" vertex="1" parent="1">
          <mxGeometry x="1060" y="350" width="80" height="26" as="geometry" />
        </mxCell>
        <mxCell id="9lXZ9nQb3GqiydMC1-ox-5" value="&lt;p style=&quot;margin:0px;margin-top:4px;text-align:center;&quot;&gt;&lt;b&gt;HashMap&lt;/b&gt;&lt;br&gt;&lt;/p&gt;&lt;hr size=&quot;1&quot;&gt;&lt;div style=&quot;height:2px;&quot;&gt;&lt;/div&gt;" style="verticalAlign=top;align=left;overflow=fill;fontSize=12;fontFamily=Helvetica;html=1;whiteSpace=wrap;" vertex="1" parent="1">
          <mxGeometry x="1140" y="410" width="140" height="60" as="geometry" />
        </mxCell>
        <mxCell id="9lXZ9nQb3GqiydMC1-ox-6" value="&lt;p style=&quot;margin:0px;margin-top:4px;text-align:center;&quot;&gt;&lt;b&gt;Map&lt;/b&gt;&lt;/p&gt;&lt;hr size=&quot;1&quot;&gt;&lt;div style=&quot;height:2px;&quot;&gt;&lt;/div&gt;" style="verticalAlign=top;align=left;overflow=fill;fontSize=12;fontFamily=Helvetica;html=1;whiteSpace=wrap;" vertex="1" parent="1">
          <mxGeometry x="1140" y="510" width="140" height="60" as="geometry" />
        </mxCell>
        <mxCell id="9lXZ9nQb3GqiydMC1-ox-7" value="" style="shape=folder;fontStyle=1;spacingTop=10;tabWidth=120;tabHeight=30;tabPosition=left;html=1;whiteSpace=wrap;" vertex="1" parent="1">
          <mxGeometry x="1060" y="40" width="300" height="250" as="geometry" />
        </mxCell>
        <mxCell id="9lXZ9nQb3GqiydMC1-ox-8" value="java.awt.event" style="text;align=center;fontStyle=1;verticalAlign=middle;spacingLeft=3;spacingRight=3;strokeColor=none;rotatable=0;points=[[0,0.5],[1,0.5]];portConstraint=eastwest;html=1;" vertex="1" parent="1">
          <mxGeometry x="1080" y="40" width="80" height="26" as="geometry" />
        </mxCell>
        <mxCell id="9lXZ9nQb3GqiydMC1-ox-9" value="&lt;p style=&quot;margin:0px;margin-top:4px;text-align:center;&quot;&gt;&lt;b&gt;ActionEvent&lt;/b&gt;&lt;br&gt;&lt;/p&gt;&lt;hr size=&quot;1&quot;&gt;&lt;div style=&quot;height:2px;&quot;&gt;&lt;/div&gt;" style="verticalAlign=top;align=left;overflow=fill;fontSize=12;fontFamily=Helvetica;html=1;whiteSpace=wrap;" vertex="1" parent="1">
          <mxGeometry x="1140" y="100" width="140" height="60" as="geometry" />
        </mxCell>
        <mxCell id="9lXZ9nQb3GqiydMC1-ox-10" value="&lt;p style=&quot;margin:0px;margin-top:4px;text-align:center;&quot;&gt;&lt;b&gt;ActionListener&lt;/b&gt;&lt;br&gt;&lt;/p&gt;&lt;hr size=&quot;1&quot;&gt;&lt;div style=&quot;height:2px;&quot;&gt;&lt;/div&gt;" style="verticalAlign=top;align=left;overflow=fill;fontSize=12;fontFamily=Helvetica;html=1;whiteSpace=wrap;" vertex="1" parent="1">
          <mxGeometry x="1140" y="200" width="140" height="60" as="geometry" />
        </mxCell>
        <mxCell id="9lXZ9nQb3GqiydMC1-ox-11" value="&lt;font style=&quot;font-size: 18px;&quot;&gt;Import&lt;/font&gt;" style="endArrow=open;endSize=12;dashed=1;html=1;rounded=0;exitX=0;exitY=0;exitDx=0;exitDy=205;exitPerimeter=0;entryX=0;entryY=0;entryDx=190;entryDy=80;entryPerimeter=0;" edge="1" parent="1" source="PXUZvY8AAILKkQXrS7Lc-4" target="9lXZ9nQb3GqiydMC1-ox-1">
          <mxGeometry width="160" relative="1" as="geometry">
            <mxPoint x="480" y="340" as="sourcePoint" />
            <mxPoint x="330" y="262" as="targetPoint" />
          </mxGeometry>
        </mxCell>
        <mxCell id="9lXZ9nQb3GqiydMC1-ox-12" value="&lt;font style=&quot;font-size: 18px;&quot;&gt;Import&lt;/font&gt;" style="endArrow=open;endSize=12;dashed=1;html=1;rounded=0;exitX=0;exitY=0;exitDx=440;exitDy=117.5;exitPerimeter=0;entryX=0;entryY=0;entryDx=0;entryDy=140;entryPerimeter=0;" edge="1" parent="1" source="PXUZvY8AAILKkQXrS7Lc-4" target="9lXZ9nQb3GqiydMC1-ox-7">
          <mxGeometry width="160" relative="1" as="geometry">
            <mxPoint x="520" y="325" as="sourcePoint" />
            <mxPoint x="345" y="370" as="targetPoint" />
          </mxGeometry>
        </mxCell>
        <mxCell id="9lXZ9nQb3GqiydMC1-ox-13" value="&lt;font style=&quot;font-size: 18px;&quot;&gt;Import&lt;/font&gt;" style="endArrow=open;endSize=12;dashed=1;html=1;rounded=0;exitX=0;exitY=0;exitDx=440;exitDy=292.5;exitPerimeter=0;entryX=0;entryY=0;entryDx=0;entryDy=140;entryPerimeter=0;" edge="1" parent="1" source="PXUZvY8AAILKkQXrS7Lc-4" target="9lXZ9nQb3GqiydMC1-ox-3">
          <mxGeometry width="160" relative="1" as="geometry">
            <mxPoint x="960" y="238" as="sourcePoint" />
            <mxPoint x="1070" y="190" as="targetPoint" />
          </mxGeometry>
        </mxCell>
      </root>
    </mxGraphModel>
  </diagram>
</mxfile>
